<svg width="29" height="29" viewBox="0 0 29 29" fill="none" xmlns="http://www.w3.org/2000/svg">
<path d="M8.09211 28.9083C8.73685 28.9083 9.18422 28.5662 9.98685 27.8557L14.5263 23.8161H22.9737C26.8947 23.8161 29 21.6451 29 17.7899V7.71089C29 3.85562 26.8947 1.68457 22.9737 1.68457H6.02632C2.10527 1.68457 0 3.84247 0 7.71089V17.7899C0 21.6583 2.10527 23.8161 6.02632 23.8161H6.6579V27.2372C6.6579 28.2504 7.17106 28.9083 8.09211 28.9083ZM8.63159 26.5004V22.6846C8.63159 21.9741 8.35528 21.6977 7.64474 21.6977H6.02632C3.36842 21.6977 2.11842 20.3425 2.11842 17.7767V7.71089C2.11842 5.1451 3.36842 3.80299 6.02632 3.80299H22.9737C25.6184 3.80299 26.8816 5.1451 26.8816 7.71089V17.7767C26.8816 20.3425 25.6184 21.6977 22.9737 21.6977H14.4474C13.7105 21.6977 13.3421 21.803 12.8421 22.3162L8.63159 26.5004ZM8.14475 11.3425C8.14475 12.8425 9.07896 14.0004 10.5658 14.0004C11.1184 14.0004 11.671 13.9082 12.0131 13.4741H12.1185C11.6316 14.5662 10.6184 15.2636 9.76316 15.4873C9.27633 15.6188 9.13158 15.8294 9.13158 16.1451C9.13158 16.4741 9.40791 16.7504 9.77632 16.7504C11.1053 16.7504 13.7763 15.1714 13.7763 11.8294C13.7763 10.0398 12.6185 8.68458 10.9079 8.68458C9.32895 8.68458 8.14475 9.77668 8.14475 11.3425ZM15.25 11.3425C15.25 12.8425 16.1843 14.0004 17.6711 14.0004C18.2237 14.0004 18.7764 13.9082 19.1184 13.4741H19.2237C18.7369 14.5662 17.7238 15.2636 16.8684 15.4873C16.3948 15.6188 16.2368 15.8294 16.2368 16.1451C16.2368 16.4741 16.5131 16.7504 16.8816 16.7504C18.2106 16.7504 20.8816 15.1714 20.8816 11.8294C20.8816 10.0398 19.7237 8.68458 18.0132 8.68458C16.4342 8.68458 15.25 9.77668 15.25 11.3425Z" fill="white"/>
</svg>
