<svg width="32" height="26" viewBox="0 0 32 26" fill="none" xmlns="http://www.w3.org/2000/svg">
<path d="M4.55073 25.9531H27.8841C30.4927 25.9531 32 24.446 32 21.4604V5.46044C32 2.48943 30.4782 0.982178 27.4493 0.982178H4.11594C1.50725 0.982178 0 2.47493 0 5.46044V21.4604C0 24.4604 1.52174 25.9531 4.55073 25.9531ZM4.46377 23.7358C3.01449 23.7358 2.21739 22.9677 2.21739 21.4604V5.46044C2.21739 3.96768 3.01449 3.19957 4.46377 3.19957H27.5362C28.9566 3.19957 29.7826 3.96768 29.7826 5.47493V21.475C29.7826 22.9677 28.9566 23.7358 27.5362 23.7358H4.46377ZM16.0289 17.33C17.0434 17.33 18.029 16.9097 19.0434 15.9098L30.8116 4.3445L29.3043 2.82276L17.7826 14.1995C17.1594 14.8227 16.5942 15.0981 16.0289 15.0981C15.4493 15.0981 14.8841 14.8082 14.2754 14.1995L2.69566 2.76478L1.17391 4.28652L13.0144 15.9098C14.029 16.9097 15 17.33 16.0289 17.33ZM29.1594 24.0547L30.6667 22.5329L21.2898 13.272L19.7826 14.7793L29.1594 24.0547ZM1.37681 22.5473L2.88406 24.0691L12.2754 14.7793L10.7536 13.272L1.37681 22.5473Z" fill="#ABBDAB"/>
</svg>
