<svg width="29" height="29" viewBox="0 0 29 29" fill="none" xmlns="http://www.w3.org/2000/svg">
<path d="M8.09211 28.908C8.73685 28.908 9.18422 28.5659 9.98685 27.8554L14.5263 23.8159H22.9737C26.8947 23.8159 29 21.6448 29 17.7897V7.71065C29 3.85538 26.8947 1.68433 22.9737 1.68433H6.02632C2.10527 1.68433 0 3.84223 0 7.71065V17.7897C0 21.6581 2.10527 23.8159 6.02632 23.8159H6.6579V27.237C6.6579 28.2502 7.17106 28.908 8.09211 28.908ZM8.63159 26.5002V22.6843C8.63159 21.9738 8.35528 21.6975 7.64474 21.6975H6.02632C3.36842 21.6975 2.11842 20.3423 2.11842 17.7764V7.71065C2.11842 5.14485 3.36842 3.80275 6.02632 3.80275H22.9737C25.6184 3.80275 26.8816 5.14485 26.8816 7.71065V17.7764C26.8816 20.3423 25.6184 21.6975 22.9737 21.6975H14.4474C13.7105 21.6975 13.3421 21.8028 12.8421 22.3159L8.63159 26.5002ZM8.14475 11.3423C8.14475 12.8422 9.07896 14.0002 10.5658 14.0002C11.1184 14.0002 11.671 13.908 12.0131 13.4738H12.1185C11.6316 14.566 10.6184 15.2633 9.76316 15.487C9.27633 15.6186 9.13158 15.8291 9.13158 16.1449C9.13158 16.4738 9.40791 16.7502 9.77632 16.7502C11.1053 16.7502 13.7763 15.1712 13.7763 11.8291C13.7763 10.0396 12.6185 8.68434 10.9079 8.68434C9.32895 8.68434 8.14475 9.77644 8.14475 11.3423ZM15.25 11.3423C15.25 12.8422 16.1843 14.0002 17.6711 14.0002C18.2237 14.0002 18.7764 13.908 19.1184 13.4738H19.2237C18.7369 14.566 17.7238 15.2633 16.8684 15.487C16.3948 15.6186 16.2368 15.8291 16.2368 16.1449C16.2368 16.4738 16.5131 16.7502 16.8816 16.7502C18.2106 16.7502 20.8816 15.1712 20.8816 11.8291C20.8816 10.0396 19.7237 8.68434 18.0132 8.68434C16.4342 8.68434 15.25 9.77644 15.25 11.3423Z" fill="#ABBDAB"/>
</svg>
