<svg width="7" height="10" viewBox="0 0 7 10" fill="none" xmlns="http://www.w3.org/2000/svg">
<path d="M7 5.35235C7 5.12023 6.8338 4.94024 6.60291 4.94024C6.49211 4.94024 6.38588 4.97816 6.312 5.05394L5.25926 6.11493L3.6062 7.97638L3.86478 8.07113L3.91095 6.65962V0.416817C3.91095 0.175254 3.74011 0 3.5 0C3.2599 0 3.08905 0.175254 3.08905 0.416817V6.65962L3.13523 8.07113L3.39842 7.97638L1.74077 6.11493L0.687994 5.05394C0.618733 4.97816 0.507915 4.94024 0.397097 4.94024C0.166227 4.94024 0 5.12023 0 5.35235C0 5.46601 0.0415569 5.56548 0.129288 5.66022L3.19064 8.81006C3.27837 8.90476 3.38457 8.95213 3.5 8.95213C3.61544 8.95213 3.72164 8.90476 3.80937 8.81006L6.87533 5.66022C6.96308 5.56548 7 5.46601 7 5.35235ZM7 9.3737C7 9.12739 6.83841 8.95213 6.60291 8.95213H0.406333C0.166227 8.95213 0 9.12739 0 9.3737C0 9.62002 0.166227 9.8 0.406333 9.8H6.60291C6.83841 9.8 7 9.62002 7 9.3737Z" fill="#C6C6C6"/>
</svg>
