<svg width="32" height="25" viewBox="0 0 32 25" fill="none" xmlns="http://www.w3.org/2000/svg">
<path d="M4.55073 25.0003H27.8841C30.4927 25.0003 32 23.4931 32 20.5075V4.50756C32 1.53655 30.4782 0.0292969 27.4493 0.0292969H4.11594C1.50725 0.0292969 0 1.52205 0 4.50756V20.5075C0 23.5075 1.52174 25.0003 4.55073 25.0003ZM4.46377 22.783C3.01449 22.783 2.21739 22.0148 2.21739 20.5075V4.50756C2.21739 3.0148 3.01449 2.24669 4.46377 2.24669H27.5362C28.9566 2.24669 29.7826 3.0148 29.7826 4.52205V20.5221C29.7826 22.0148 28.9566 22.783 27.5362 22.783H4.46377ZM16.0289 16.3771C17.0434 16.3771 18.029 15.9568 19.0434 14.9569L30.8116 3.39162L29.3043 1.86988L17.7826 13.2466C17.1594 13.8698 16.5942 14.1452 16.0289 14.1452C15.4493 14.1452 14.8841 13.8554 14.2754 13.2466L2.69566 1.8119L1.17391 3.33364L13.0144 14.9569C14.029 15.9568 15 16.3771 16.0289 16.3771ZM29.1594 23.1018L30.6667 21.58L21.2898 12.3192L19.7826 13.8264L29.1594 23.1018ZM1.37681 21.5945L2.88406 23.1162L12.2754 13.8264L10.7536 12.3192L1.37681 21.5945Z" fill="white"/>
</svg>
