<svg width="69" height="33" viewBox="0 0 69 33" fill="none" xmlns="http://www.w3.org/2000/svg">
<path d="M20.6493 8.08803C18.8101 8.08803 17.3906 9.10023 16.3907 11.4579C12.811 7.86583 7.15749 4.66878 1.51634 4.23674C0.257267 4.15033 0.0474204 5.1255 0.0227326 5.85379C-0.372272 12.038 4.4295 17.42 10.6015 18.1236C8.97205 21.7527 6.77483 25.2089 3.7259 28.0974C3.23214 28.5541 3.36792 29.196 3.67652 29.6528C5.13309 31.8993 9.68798 33.2325 12.7616 32.1709C13.5023 31.9117 13.6256 31.5043 13.6256 30.9365V26.357C16.9956 26.1718 22.3282 23.9499 21.4517 17.099L21.3282 16.235C23.8588 15.5931 25.5746 13.9513 25.5746 12.2973C25.5746 10.2729 23.3403 8.08803 20.6493 8.08803ZM20.7605 9.86554C22.5257 9.86554 23.797 11.1493 23.797 12.2973C23.797 13.2355 22.5503 14.3217 20.1556 14.655C19.7853 14.692 19.5137 14.9636 19.5507 15.3092L19.7112 17.1484C20.242 23.4931 15.3291 24.3943 12.4654 24.5301C12.1073 24.5424 11.8358 24.7893 11.8358 25.1596V30.5662C11.8358 30.6897 11.7865 30.7884 11.6506 30.8007C9.25595 31.2328 6.65139 30.3687 5.41701 29.0973C5.33059 29.0109 5.29357 28.8751 5.39232 28.7887C8.72516 25.5916 10.9965 21.7156 12.6999 17.6422C12.9344 17.0744 12.7123 16.6176 12.1321 16.593C6.25639 16.4448 1.84963 12.1245 1.80025 6.28582C1.80025 6.10066 1.83728 6.05129 2.03479 6.07598C7.2439 6.71786 12.1691 9.66804 14.9958 12.5936C15.502 13.0997 15.8599 13.3588 16.3537 13.3588C17.156 13.3588 17.5387 12.9638 17.946 12.1368C18.662 10.6556 19.2916 9.86554 20.7605 9.86554ZM18.4522 9.5446L20.1186 8.96444C18.4028 4.98972 16.0451 2.24937 12.8356 0.410139C11.8852 -0.132991 10.9223 0.274357 10.6631 1.2989C10.046 3.54548 9.79908 5.70566 10.0953 7.95225L12.0333 8.86569C11.589 6.61911 11.6754 4.65643 12.1938 2.55797C12.2308 2.33578 12.4531 2.26172 12.6381 2.37281C15.1316 4.00221 16.9956 6.24879 18.4522 9.5446ZM21.5751 12.6182C21.9824 12.6182 22.3282 12.2849 22.3282 11.8653C22.3282 11.4579 21.9824 11.0999 21.5751 11.0999C21.1431 11.0999 20.8099 11.4579 20.8099 11.8653C20.8099 12.2849 21.1431 12.6182 21.5751 12.6182ZM23.6366 14.223L28.1421 14.8648C28.9815 14.9882 29.3765 13.7415 28.5248 13.3836L24.4513 11.6554L23.6366 14.223Z" fill="#ABBDAB"/>
<g clip-path="url(#clip0_68_247)">
<path d="M43.2663 29H65.1413C67.5869 29 69 27.5531 69 24.687V9.32697C69 6.47479 67.5733 5.02783 64.7337 5.02783H42.8587C40.413 5.02783 39 6.46088 39 9.32697V24.687C39 27.567 40.4266 29 43.2663 29ZM43.1848 26.8714C41.8261 26.8714 41.0788 26.134 41.0788 24.687V9.32697C41.0788 7.89393 41.8261 7.15654 43.1848 7.15654H64.8152C66.1468 7.15654 66.9212 7.89393 66.9212 9.34088V24.701C66.9212 26.134 66.1468 26.8714 64.8152 26.8714H43.1848ZM54.0271 20.7218C54.9782 20.7218 55.9021 20.3182 56.8532 19.3584L67.8859 8.25567L66.4728 6.79479L55.6712 17.7165C55.087 18.3148 54.5571 18.5792 54.0271 18.5792C53.4837 18.5792 52.9539 18.3009 52.3832 17.7165L41.5272 6.73914L40.1005 8.20001L51.201 19.3584C52.1522 20.3182 53.0625 20.7218 54.0271 20.7218ZM66.3369 27.1775L67.75 25.7165L58.9592 16.8261L57.5462 18.2731L66.3369 27.1775ZM40.2908 25.7304L41.7038 27.1914L50.5082 18.2731L49.0815 16.8261L40.2908 25.7304Z" fill="#ABBDAB"/>
</g>
<defs>
<clipPath id="clip0_68_247">
<rect width="30" height="24" fill="white" transform="translate(39 5)"/>
</clipPath>
</defs>
</svg>
