<svg width="71" height="39" viewBox="0 0 71 39" fill="none" xmlns="http://www.w3.org/2000/svg">
<path d="M30.6462 22.9959L18.5543 29.3379L6.55285 22.8906L2.0274 25.4378C0.561155 26.2635 0 26.9135 0 27.8622C0 28.8283 0.561155 29.4783 2.0274 30.304L16.2011 38.2797C17.07 38.7715 17.7579 39 18.5001 39C19.2241 39 19.93 38.7715 20.7989 38.2797L34.9545 30.304C36.4207 29.4783 37 28.8283 37 27.8622C37 26.9135 36.4207 26.2635 34.9545 25.4378L30.6462 22.9959ZM27.4242 16.4783L33.072 19.6054C33.1625 19.6405 33.2168 19.6933 33.2168 19.7811C33.2168 19.8688 33.1625 19.904 33.072 19.9567L19.2965 27.5986C19.0069 27.7568 18.7534 27.8446 18.5001 27.8446C18.2466 27.8446 17.9931 27.7568 17.6854 27.5986L3.90998 19.9567C3.83759 19.904 3.78327 19.8688 3.78327 19.7811C3.78327 19.6933 3.83759 19.6405 3.90998 19.6054L10.0103 16.2149L7.114 14.4932L2.0274 17.3392C0.561155 18.1823 0 18.8148 0 19.7811C0 20.7473 0.561155 21.3798 2.0274 22.2053L16.2011 30.1987C17.07 30.6905 17.7579 30.9188 18.5001 30.9188C19.2241 30.9188 19.93 30.6905 20.7989 30.1987L34.9545 22.2053C36.4207 21.3798 37 20.7473 37 19.7811C37 18.8148 36.4207 18.1823 34.9545 17.3392L30.23 14.6689L27.4242 16.4783ZM18.5001 22.2581C19.2241 22.2581 19.93 22.0298 20.7989 21.5378L34.9545 13.5621C36.4207 12.7365 37 12.0865 37 11.1203C37 10.1716 36.4207 9.52162 34.9545 8.69593L20.7989 0.720265C19.93 0.228379 19.2241 0 18.5001 0C17.7579 0 17.07 0.228379 16.2011 0.720265L2.0274 8.69593C0.561155 9.52162 0 10.1716 0 11.1203C0 12.0865 0.561155 12.7365 2.0274 13.5621L16.2011 21.5378C17.07 22.0298 17.7579 22.2581 18.5001 22.2581ZM18.5001 19.2013C18.2466 19.2013 17.9931 19.1134 17.6854 18.9554L3.90998 11.2959C3.83759 11.2608 3.78327 11.2081 3.78327 11.1203C3.78327 11.05 3.83759 10.9973 3.90998 10.9621L17.6854 3.3027C17.9931 3.14459 18.2466 3.05676 18.5001 3.05676C18.7534 3.05676 19.0069 3.14459 19.2965 3.3027L33.072 10.9621C33.1625 10.9973 33.2168 11.05 33.2168 11.1203C33.2168 11.2081 33.1625 11.2608 33.072 11.2959L19.2965 18.9554C19.0069 19.1134 18.7534 19.2013 18.5001 19.2013Z" fill="#ABBDAB"/>
<path d="M66.1313 6.96859H67.7591C68.3872 6.96859 68.7013 7.31126 68.7013 8.03941V29.7984C68.7013 30.6551 68.5728 30.9692 67.7591 31.3261C64.9177 32.5682 60.9201 33.3678 57.1508 33.3678C54.952 33.3678 52.839 33.2251 50.6545 32.8538V33.0395C56.6939 33.1252 62.462 31.426 65.0892 29.4129C66.1028 28.642 66.4027 28.128 66.4027 26.8716V4.09881C66.4027 2.68532 65.6888 2 64.4323 2C64.004 2 63.4901 2.09994 62.8761 2.29983C58.5643 3.71331 54.6237 4.6128 49.5694 4.6128H48.4272C46.8852 4.6128 46 5.51228 46 6.91149V31.4118C46 32.5255 46.2427 33.1965 47.2993 33.7104C49.7407 34.767 53.3958 35.4667 57.1508 35.4667C61.1485 35.4667 65.6459 34.867 68.8726 33.2964C70.586 32.4826 71 31.7259 71 29.9555V8.03941C71 5.72644 69.9721 4.66991 67.7448 4.66991H66.1313V6.96859ZM48.2987 30.341V7.52543C48.2987 7.12565 48.5129 6.88293 48.8841 6.88293H49.6693C54.6665 6.88293 59.3352 5.8835 63.3186 4.62707C63.8042 4.47002 64.104 4.59852 64.104 5.04112V26.3718C64.104 27.1428 64.004 27.4569 63.2759 27.928C60.3061 29.9127 55.4946 31.1406 48.7984 30.855C48.4415 30.8407 48.2987 30.6837 48.2987 30.341ZM51.2113 10.6522V15.3352C51.2113 15.5637 51.3684 15.6636 51.554 15.6636C54.9092 15.6636 58.3073 15.064 60.8772 14.036C61.0057 13.9789 61.0771 13.8504 61.0771 13.7219V8.83896C61.0771 8.51058 60.7773 8.43919 60.6202 8.51058C57.6648 9.5814 54.7807 10.1525 51.554 10.281C51.3541 10.2953 51.2113 10.4523 51.2113 10.6522Z" fill="#ABBDAB"/>
</svg>
