<svg width="81" height="33" viewBox="0 0 81 33" fill="none" xmlns="http://www.w3.org/2000/svg">
<path d="M21.8419 33H33.4745C35.0204 33 36 31.9011 36 30.1829V10.4325C36 8.71436 35.0204 7.61538 33.4745 7.61538H22.9439V10.1074H32.6632C33.2601 10.1074 33.5357 10.4015 33.5357 11.0052V29.6102C33.5357 30.2139 33.2601 30.508 32.6632 30.508H21.8419V33ZM27.7194 16.1286H30.1837C30.4899 16.1286 30.7041 15.9118 30.7041 15.6022V13.1876C30.7041 12.878 30.4899 12.6614 30.1837 12.6614H27.7194C27.398 12.6614 27.2142 12.878 27.2142 13.1876V15.6022C27.2142 15.9118 27.398 16.1286 27.7194 16.1286ZM27.7194 22.0412H30.1837C30.4899 22.0412 30.7041 21.8246 30.7041 21.515V19.1004C30.7041 18.7908 30.4899 18.5741 30.1837 18.5741H27.7194C27.398 18.5741 27.2142 18.7908 27.2142 19.1004V21.515C27.2142 21.8246 27.398 22.0412 27.7194 22.0412ZM27.7194 27.9541H30.1837C30.4899 27.9541 30.7041 27.7373 30.7041 27.4277V25.0131C30.7041 24.7035 30.4899 24.4869 30.1837 24.4869H27.7194C27.398 24.4869 27.2142 24.7035 27.2142 25.0131V27.4277C27.2142 27.7373 27.398 27.9541 27.7194 27.9541ZM0 30.1829C0 31.9011 0.979592 33 2.54081 33H21.8419C23.3877 33 24.3673 31.9011 24.3673 30.1829V2.81707C24.3673 1.09897 23.3877 0 21.8419 0H2.54081C0.979592 0 0 1.09897 0 2.81707V30.1829ZM2.46429 29.6102V3.38977C2.46429 2.77064 2.7398 2.49203 3.35205 2.49203H21.0307C21.6276 2.49203 21.903 2.77064 21.903 3.38977V29.6102C21.903 30.2139 21.6276 30.508 21.0307 30.508H3.35205C2.7398 30.508 2.46429 30.2139 2.46429 29.6102ZM6.85714 31.6843H8.86225V26.5145C8.86225 26.1894 9.03061 26.0192 9.35205 26.0192H15.0153C15.352 26.0192 15.5051 26.1894 15.5051 26.5145V31.6843H17.5101V25.9418C17.5101 24.6106 16.9285 23.9916 15.6735 23.9916H8.69388C7.43877 23.9916 6.85714 24.6106 6.85714 25.9418V31.6843ZM7.10204 9.25609H10.0867C10.4541 9.25609 10.7143 9.00844 10.7143 8.62148V5.69606C10.7143 5.32458 10.4541 5.06144 10.0867 5.06144H7.10204C6.73469 5.06144 6.5051 5.32458 6.5051 5.69606V8.62148C6.5051 9.00844 6.73469 9.25609 7.10204 9.25609ZM14.2806 9.25609H17.25C17.6174 9.25609 17.8776 9.00844 17.8776 8.62148V5.69606C17.8776 5.32458 17.6174 5.06144 17.25 5.06144H14.2806C13.8979 5.06144 13.6683 5.32458 13.6683 5.69606V8.62148C13.6683 9.00844 13.8979 9.25609 14.2806 9.25609ZM7.10204 15.3856H10.0867C10.4541 15.3856 10.7143 15.138 10.7143 14.751V11.8255C10.7143 11.454 10.4541 11.1909 10.0867 11.1909H7.10204C6.73469 11.1909 6.5051 11.454 6.5051 11.8255V14.751C6.5051 15.138 6.73469 15.3856 7.10204 15.3856ZM14.2806 15.3856H17.25C17.6174 15.3856 17.8776 15.138 17.8776 14.751V11.8255C17.8776 11.454 17.6174 11.1909 17.25 11.1909H14.2806C13.8979 11.1909 13.6683 11.454 13.6683 11.8255V14.751C13.6683 15.138 13.8979 15.3856 14.2806 15.3856ZM7.10204 21.515H10.0867C10.4541 21.515 10.7143 21.2519 10.7143 20.8804V17.955C10.7143 17.568 10.4541 17.3204 10.0867 17.3204H7.10204C6.73469 17.3204 6.5051 17.568 6.5051 17.955V20.8804C6.5051 21.2519 6.73469 21.515 7.10204 21.515ZM14.2806 21.515H17.25C17.6174 21.515 17.8776 21.2519 17.8776 20.8804V17.955C17.8776 17.568 17.6174 17.3204 17.25 17.3204H14.2806C13.8979 17.3204 13.6683 17.568 13.6683 17.955V20.8804C13.6683 21.2519 13.8979 21.515 14.2806 21.515Z" fill="#ABBDAB"/>
<path d="M47.8783 27.6752H51.6315C52.5353 27.6752 53.1327 27.0666 53.1327 26.2147V23.4002C53.1327 22.533 52.5353 21.9397 51.6315 21.9397H47.8783C46.9745 21.9397 46.377 22.533 46.377 23.4002V26.2147C46.377 27.0666 46.9745 27.6752 47.8783 27.6752ZM42.2408 16.5236H75.7745V13.0702H42.2408V16.5236ZM45.8102 32.9999H72.1898C75.4067 32.9999 77 31.433 77 28.2989V11.7314C77 8.59735 75.4067 7.01514 72.1898 7.01514H45.8102C42.6085 7.01514 41 8.59735 41 11.7314V28.2989C41 31.433 42.6085 32.9999 45.8102 32.9999ZM45.8408 30.5506C44.3089 30.5506 43.4664 29.7442 43.4664 28.1621V11.8683C43.4664 10.2861 44.3089 9.46453 45.8408 9.46453H72.1591C73.6604 9.46453 74.5335 10.2861 74.5335 11.8683V28.1621C74.5335 29.7442 73.6604 30.5506 72.1591 30.5506H45.8408Z" fill="#ABBDAB"/>
</svg>
