<svg width="83" height="33" viewBox="0 0 83 33" fill="none" xmlns="http://www.w3.org/2000/svg">
<path d="M2.07462 25.6516L13.737 32.2607C14.5668 32.7349 15.3522 32.7349 16.1969 32.2607L27.8445 25.6516C29.2079 24.8662 29.9192 24.0956 29.9192 21.9765V10.24C29.9192 8.69884 29.356 7.75044 28.1113 7.02432L17.6195 1.06717C15.8264 0.0446689 14.0926 0.0446689 12.2996 1.06717L1.82272 7.02432C0.563113 7.75044 0 8.69884 0 10.24V21.9765C0 24.0956 0.726121 24.8662 2.07462 25.6516ZM3.40832 23.6955C2.54883 23.2065 2.25246 22.7174 2.25246 21.9024V10.7142L13.7963 17.3086V29.6082L3.40832 23.6955ZM26.5257 23.6955L16.1228 29.6082V17.3086L27.6667 10.7142V21.9024C27.6667 22.7174 27.3703 23.2065 26.5257 23.6955ZM14.9669 15.234L3.52687 8.75811L8.10588 6.13519L19.5459 12.6406L14.9669 15.234ZM21.9319 11.2921L10.4472 4.80151L13.2924 3.18625C14.4335 2.53423 15.4856 2.51941 16.6416 3.18625L26.4071 8.75811L21.9319 11.2921Z" fill="#ABBDAB"/>
<path d="M60.7423 27.9336H79.3546C81.8293 27.9336 83 27.1927 83 25.5626C83 21.6801 78.095 16.0638 70.0484 16.0638C62.0167 16.0638 57.1117 21.6801 57.1117 25.5626C57.1117 27.1927 58.2823 27.9336 60.7423 27.9336ZM60.031 25.696C59.6457 25.696 59.4975 25.5923 59.4975 25.2811C59.4975 22.8508 63.2614 18.3015 70.0484 18.3015C76.8502 18.3015 80.6142 22.8508 80.6142 25.2811C80.6142 25.5923 80.4512 25.696 80.0659 25.696H60.031ZM70.0632 14.2263C73.5901 14.2263 76.465 11.0847 76.465 7.26145C76.465 3.46784 73.6049 0.489258 70.0632 0.489258C66.5364 0.489258 63.6467 3.52711 63.6616 7.29107C63.6764 11.0995 66.5364 14.2263 70.0632 14.2263ZM70.0632 11.9886C67.8997 11.9886 66.0474 9.914 66.0474 7.29107C66.0326 4.71261 67.8553 2.72689 70.0632 2.72689C72.2712 2.72689 74.0791 4.68297 74.0791 7.26145C74.0791 9.88437 72.2416 11.9886 70.0632 11.9886ZM44.738 27.9336H56.3707C55.6594 27.5335 55.126 26.6444 55.2297 25.7405H44.3823C44.0711 25.7405 43.9377 25.6219 43.9377 25.3404C43.9377 21.6653 48.1315 18.2274 52.9772 18.2274C54.8296 18.2274 56.5189 18.6719 57.9563 19.5166C58.4157 18.9238 58.964 18.4052 59.6308 17.9458C57.7192 16.6862 55.4223 16.0342 52.9772 16.0342C46.7681 16.0342 41.7297 20.5391 41.7297 25.4737C41.7297 27.1186 42.7374 27.9336 44.738 27.9336ZM52.992 14.3449C56.0447 14.3449 58.5491 11.6033 58.5491 8.23948C58.5491 4.94971 56.0744 2.29715 52.992 2.29715C49.9393 2.29715 47.4202 4.99417 47.435 8.26912C47.435 11.6182 49.9393 14.3449 52.992 14.3449ZM52.992 12.1368C51.1693 12.1368 49.643 10.403 49.643 8.26912C49.643 6.17967 51.1545 4.50515 52.992 4.50515C54.8592 4.50515 56.3559 6.15003 56.3559 8.23948C56.3559 10.403 54.8148 12.1368 52.992 12.1368Z" fill="#ABBDAB"/>
</svg>
