<svg width="29" height="28" viewBox="0 0 29 28" fill="none" xmlns="http://www.w3.org/2000/svg">
<path d="M15.6255 0C18.1066 0.00494861 18.6417 0.0259595 19.9121 0.0841454C21.4035 0.152451 22.4224 0.385827 23.3103 0.733046C24.2324 1.09165 25.0123 1.56979 25.7921 2.3496C26.5662 3.12373 27.0443 3.90924 27.403 4.82567C27.7445 5.71364 27.9835 6.73253 28.0518 8.22386C28.1151 9.60472 28.1344 10.1169 28.1369 13.2037V14.7877C28.1344 17.8744 28.1151 18.3866 28.0518 19.7675C27.9835 21.2588 27.7502 22.2777 27.403 23.1656C27.0443 24.0878 26.5662 24.8676 25.7864 25.6474C25.0066 26.4272 24.2268 26.9054 23.3046 27.264C22.4167 27.6055 21.3978 27.8446 19.9064 27.9129C18.4151 27.9812 17.937 27.9982 14.1347 27.9982L13.7256 27.9982C10.2955 27.9969 9.79895 27.9786 8.36285 27.9129C6.87152 27.8446 5.85263 27.6112 4.96466 27.264C4.04254 26.9054 3.26272 26.4272 2.48291 25.6474C1.70309 24.8676 1.22495 24.0878 0.866347 23.1656C0.52482 22.2777 0.285746 21.2588 0.217441 19.7675C0.159255 18.4971 0.138249 17.9619 0.133301 15.4808V12.5105C0.138249 10.0294 0.159255 9.49425 0.217441 8.22386C0.285746 6.73253 0.519128 5.71364 0.866347 4.82567C1.22495 3.90924 1.70309 3.12373 2.48291 2.3496C3.26272 1.56979 4.04254 1.09165 4.96466 0.733046C5.85263 0.385827 6.87152 0.146759 8.36854 0.0841454C9.63894 0.0259595 10.1741 0.00494861 12.6552 0H15.6255ZM14.5368 2.52042H13.7325C10.3606 2.52129 9.89635 2.53428 8.47669 2.60006C7.11059 2.66267 6.37061 2.89036 5.8754 3.08389C5.2208 3.34003 4.75405 3.64171 4.26453 4.13124C3.77501 4.62076 3.47333 5.08751 3.21718 5.7421C3.02365 6.23731 2.79597 6.97729 2.73336 8.34339C2.67074 9.81765 2.65367 10.2616 2.65367 14.0013C2.65367 17.7411 2.66505 18.185 2.73336 19.6593C2.79597 21.0254 3.02365 21.7654 3.21718 22.2606C3.47333 22.9152 3.77501 23.3819 4.26453 23.8715C4.75405 24.361 5.2208 24.6627 5.8754 24.9188C6.37061 25.1123 7.11059 25.34 8.47669 25.4026C9.95095 25.4653 10.3949 25.4823 14.1347 25.4823L14.5368 25.4823C17.9087 25.4814 18.373 25.4684 19.7926 25.4026C21.1587 25.34 21.8987 25.1123 22.3939 24.9188C23.0485 24.6627 23.5152 24.361 24.0048 23.8715C24.4943 23.3819 24.796 22.9152 25.0521 22.2606C25.2456 21.7654 25.4733 21.0254 25.5359 19.6593C25.5985 18.185 25.6156 17.7411 25.6156 14.0013L25.6156 13.5992C25.6147 10.2273 25.6017 9.76305 25.5359 8.34339C25.4733 6.97729 25.2456 6.23731 25.0521 5.7421C24.796 5.08751 24.4943 4.62076 24.0048 4.13124C23.5152 3.64171 23.0485 3.34003 22.3939 3.08389C21.8987 2.89036 21.1587 2.66267 19.7926 2.60006C18.3183 2.53175 17.8744 2.52037 14.1347 2.52037L14.5368 2.52042ZM14.1347 6.81222C18.1077 6.81222 21.3238 10.0339 21.3238 14.0013C21.3238 17.9687 18.102 21.1905 14.1347 21.1905C10.1673 21.1905 6.94552 17.9744 6.94552 14.0013C6.94552 10.0283 10.1616 6.81222 14.1347 6.81222ZM14.1347 9.33382C11.5561 9.33382 9.46712 11.4228 9.46712 14.0013C9.46712 16.5799 11.5561 18.6689 14.1347 18.6689C16.7132 18.6689 18.8022 16.5799 18.8022 14.0013C18.8022 11.4228 16.7132 9.33382 14.1347 9.33382ZM21.6141 4.84844C22.5415 4.84844 23.2932 5.60023 23.2932 6.52761C23.2932 7.45499 22.5415 8.20678 21.6141 8.20678C20.6867 8.20678 19.9349 7.45499 19.9349 6.52761C19.9349 5.60023 20.6867 4.84844 21.6141 4.84844Z" fill="#ABBDAB"/>
</svg>
