<svg width="49" height="17" viewBox="0 0 49 17" fill="none" xmlns="http://www.w3.org/2000/svg">
<path d="M48.1034 8.55171C48.1034 3.82909 44.2743 0 39.5517 0C34.8291 0 31 3.82909 31 8.55171C31 12.8198 34.1268 16.3578 38.2156 17V11.0243H36.0437V8.55171H38.2156V6.66723C38.2156 4.52419 39.4928 3.33963 41.4458 3.33963C42.3814 3.33963 43.3604 3.50679 43.3604 3.50679V5.61135H42.2816C41.2197 5.61135 40.8878 6.27037 40.8878 6.94744V8.55171H43.2593L42.8805 11.0243H40.8878V17C44.9767 16.359 48.1034 12.821 48.1034 8.55171Z" fill="#ABBDAB"/>
<path d="M9.2003 0C10.6737 0.00293882 10.9916 0.0154165 11.746 0.0499712C12.6316 0.0905355 13.2367 0.22913 13.7641 0.435332C14.3117 0.648294 14.7748 0.932244 15.2379 1.39535C15.6976 1.85508 15.9816 2.32157 16.1945 2.86581C16.3974 3.39314 16.5393 3.99823 16.5799 4.88388C16.6175 5.70393 16.6289 6.00811 16.6304 7.84121V8.7819C16.6289 10.615 16.6175 10.9192 16.5799 11.7392C16.5393 12.6249 16.4007 13.23 16.1945 13.7573C15.9816 14.3049 15.6976 14.768 15.2345 15.2311C14.7714 15.6943 14.3083 15.9782 13.7607 16.1912C13.2334 16.394 12.6283 16.536 11.7426 16.5765C10.857 16.6171 10.573 16.6272 8.31494 16.6272L8.07203 16.6272C6.035 16.6264 5.74011 16.6156 4.88726 16.5765C4.0016 16.536 3.39652 16.3974 2.86919 16.1912C2.32157 15.9782 1.85846 15.6943 1.39535 15.2311C0.932244 14.768 0.648294 14.3049 0.435332 13.7573C0.23251 13.23 0.0905323 12.6249 0.049968 11.7392C0.0154133 10.9848 0.00293882 10.667 0 9.19354V7.42958C0.00293882 5.95614 0.0154133 5.63832 0.049968 4.88388C0.0905323 3.99823 0.22913 3.39314 0.435332 2.86581C0.648294 2.32157 0.932244 1.85508 1.39535 1.39535C1.85846 0.932244 2.32157 0.648294 2.86919 0.435332C3.39652 0.22913 4.0016 0.0871551 4.89064 0.0499712C5.64508 0.0154165 5.9629 0.00293882 7.43633 0H9.2003ZM8.55378 1.49679H8.0761C6.07368 1.49731 5.79795 1.50503 4.95486 1.54409C4.14358 1.58127 3.70413 1.71649 3.41004 1.83142C3.0213 1.98353 2.74411 2.16269 2.4534 2.4534C2.16269 2.74411 1.98353 3.0213 1.83142 3.41004C1.71648 3.70413 1.58127 4.14358 1.54409 4.95487C1.5069 5.83038 1.49676 6.09405 1.49676 8.31494C1.49676 10.5358 1.50352 10.7995 1.54409 11.675C1.58127 12.4863 1.71648 12.9257 1.83142 13.2198C1.98353 13.6086 2.16269 13.8858 2.4534 14.1765C2.74411 14.4672 3.0213 14.6463 3.41004 14.7985C3.70413 14.9134 4.14358 15.0486 4.95486 15.0858C5.83038 15.123 6.09405 15.1331 8.31494 15.1331L8.55378 15.1331C10.5562 15.1326 10.8319 15.1248 11.675 15.0858C12.4863 15.0486 12.9257 14.9134 13.2198 14.7985C13.6086 14.6463 13.8858 14.4672 14.1765 14.1765C14.4672 13.8858 14.6463 13.6086 14.7985 13.2198C14.9134 12.9257 15.0486 12.4863 15.0858 11.675C15.123 10.7995 15.1331 10.5358 15.1331 8.31494L15.1331 8.0761C15.1326 6.07368 15.1248 5.79795 15.0858 4.95487C15.0486 4.14358 14.9134 3.70413 14.7985 3.41004C14.6463 3.0213 14.4672 2.74411 14.1765 2.4534C13.8858 2.16269 13.6086 1.98353 13.2198 1.83142C12.9257 1.71649 12.4863 1.58127 11.675 1.54409C10.7995 1.50352 10.5358 1.49676 8.31494 1.49676L8.55378 1.49679ZM8.31494 4.04555C10.6744 4.04555 12.5843 5.95883 12.5843 8.31494C12.5843 10.671 10.671 12.5843 8.31494 12.5843C5.95883 12.5843 4.04555 10.6744 4.04555 8.31494C4.04555 5.95545 5.95545 4.04555 8.31494 4.04555ZM8.31494 5.54305C6.78364 5.54305 5.54304 6.78364 5.54304 8.31494C5.54304 9.84624 6.78364 11.0868 8.31494 11.0868C9.84624 11.0868 11.0868 9.84624 11.0868 8.31494C11.0868 6.78364 9.84624 5.54305 8.31494 5.54305ZM12.7567 2.87933C13.3075 2.87933 13.7539 3.32579 13.7539 3.87653C13.7539 4.42727 13.3075 4.87374 12.7567 4.87374C12.206 4.87374 11.7595 4.42727 11.7595 3.87653C11.7595 3.32579 12.206 2.87933 12.7567 2.87933Z" fill="#ABBDAB"/>
</svg>
