<svg width="36" height="41" viewBox="0 0 36 41" fill="none" xmlns="http://www.w3.org/2000/svg">
<path d="M14.7961 21.2457V37.5323C14.7961 40.5311 16.6097 41.5186 19.1237 40.0642L33.1835 31.9299C34.9433 30.9243 35.4281 29.9009 35.4281 27.9975V11.262C35.4281 8.73013 33.1655 8.08371 31.3879 9.08927L17.0048 17.4031C15.4067 18.3369 14.7961 19.3963 14.7961 21.2457ZM18.5131 19.9888L32.1959 12.088C32.3755 11.9982 32.5011 12.088 32.5011 12.2496V27.9435C32.5011 28.6619 32.3576 28.9492 31.7471 29.3083L17.9924 37.2449C17.8307 37.3347 17.723 37.263 17.723 37.0834V21.3535C17.723 20.5813 17.9385 20.3301 18.5131 19.9888ZM16.3763 32.7379V29.2723L10.3609 32.7379C10.1993 32.8277 10.0915 32.7739 10.0915 32.5943V16.8645C10.0915 16.0924 10.307 15.8409 10.8816 15.4997L24.5644 7.59888C24.744 7.49114 24.8698 7.59888 24.8698 7.76049V14.4942L27.7966 12.9679V6.77288C27.7966 4.24103 25.5342 3.57663 23.7564 4.60015L9.37328 12.896C7.75719 13.8477 7.16463 14.9072 7.16463 16.7566V33.0433C7.16463 36.042 8.96028 37.0116 11.4921 35.5751L16.3763 32.7379ZM8.60114 28.9671V25.4836L3.19625 28.6079C3.03464 28.6977 2.92691 28.6439 2.92691 28.4643V12.7344C2.92691 11.9623 3.14238 11.7109 3.71699 11.3697L17.3999 3.46889C17.5794 3.36116 17.7051 3.45094 17.7051 3.6305V9.77161L20.6319 8.31714V2.6429C20.6319 0.0930799 18.3695 -0.553353 16.5917 0.452209L2.20865 8.76605C0.610521 9.69979 0 10.7592 0 12.6267V28.8952C0 31.912 1.8136 32.8816 4.32751 31.4272L8.60114 28.9671Z" fill="#ABBDAB"/>
</svg>
