<svg width="45" height="37" viewBox="0 0 45 37" fill="none" xmlns="http://www.w3.org/2000/svg">
<path d="M0.963379 33.043C0.963379 34.6453 2.01857 35.2706 3.17146 35.2706C3.83584 35.2706 4.40251 34.8799 5.14505 34.4304C7.29452 32.9648 9.95201 32.0661 12.6682 32.0856C15.482 32.1051 18.2763 33.1407 20.4648 35.2511C21.3245 36.0328 21.9498 36.2867 22.6729 36.2867C23.3764 36.2867 24.0212 36.0328 24.8614 35.2511C27.0499 33.1602 29.8443 32.1051 32.6776 32.0856C35.3937 32.0661 38.0318 32.9648 40.1812 34.4304C40.9237 34.8799 41.4905 35.2706 42.1743 35.2706C43.3077 35.2706 44.3628 34.6453 44.3628 33.043V6.52653C44.3628 6.19434 44.3433 5.92078 44.1284 5.58859C42.3894 2.55982 37.9731 0 32.5996 0C28.3397 0 24.6465 1.70002 22.6729 4.10352C20.6992 1.70002 16.9866 0 12.7463 0C7.35313 0 2.93697 2.55982 1.19787 5.58859C1.00246 5.92078 0.963379 6.19434 0.963379 6.52653V33.043ZM4.10941 31.3821V6.97596C5.69219 4.68973 9.13132 3.14603 12.7463 3.14603C16.459 3.14603 19.7028 4.70927 21.0901 7.09322V31.7142C19.097 30.1315 15.99 28.9396 12.7463 28.9396C9.34626 28.9396 6.18071 29.897 4.10941 31.3821ZM24.2361 31.7142V7.09322C25.6236 4.70927 28.8868 3.14603 32.5996 3.14603C36.1949 3.14603 39.6341 4.68973 41.2168 6.97596V31.3821C39.1455 29.897 35.98 28.9396 32.5996 28.9396C29.3362 28.9396 26.2292 30.1315 24.2361 31.7142Z" fill="#ABBDAB"/>
</svg>
