<svg width="34" height="31" viewBox="0 0 34 31" fill="none" xmlns="http://www.w3.org/2000/svg">
<path id="Vector" d="M11.7356 30.7383C12.0139 30.7383 12.2149 30.5372 12.2613 30.2435C12.7561 26.1152 12.9571 26.0069 17.1627 25.3266C17.4874 25.2647 17.6884 25.1101 17.6884 24.8009C17.6884 24.5071 17.4874 24.3216 17.2246 24.2751C12.988 23.4712 12.7561 23.4867 12.2613 19.3583C12.2149 19.0645 12.0139 18.8636 11.7356 18.8636C11.4418 18.8636 11.2408 19.0645 11.2099 19.3429C10.6687 23.533 10.5296 23.6722 6.24661 24.2751C5.98376 24.3061 5.78275 24.5071 5.78275 24.8009C5.78275 25.0946 5.98376 25.2647 6.24661 25.3266C10.5296 26.1461 10.6533 26.1461 11.2099 30.2744C11.2408 30.5372 11.4418 30.7383 11.7356 30.7383ZM4.39117 17.2709C4.60765 17.2709 4.73135 17.1164 4.77772 16.9153C5.30343 13.9776 5.31889 13.792 8.42674 13.2663C8.62774 13.2199 8.78236 13.0962 8.78236 12.8798C8.78236 12.6633 8.62774 12.5241 8.42674 12.4932C5.31889 11.952 5.30343 11.7665 4.77772 8.82875C4.73135 8.62774 4.60765 8.48858 4.39117 8.48858C4.17471 8.48858 4.05102 8.62774 4.00464 8.82875C3.47893 11.7665 3.46347 11.952 0.355623 12.4932C0.15462 12.5241 0 12.6633 0 12.8798C0 13.0962 0.15462 13.2199 0.355623 13.2663C3.46347 13.792 3.47893 13.9776 4.00464 16.9153C4.05102 17.1164 4.17471 17.2709 4.39117 17.2709ZM12.8643 7.37532C13.0498 7.37532 13.1426 7.26709 13.1735 7.09702C13.6992 4.62311 13.6684 4.53033 16.2659 4.00464C16.436 3.97371 16.5597 3.86548 16.5597 3.69539C16.5597 3.50986 16.436 3.40161 16.2659 3.3707C13.6684 2.84499 13.6992 2.75222 13.1735 0.293776C13.1426 0.123695 13.0498 0 12.8643 0C12.6788 0 12.586 0.123695 12.5551 0.293776C12.0294 2.75222 12.0603 2.84499 9.46269 3.3707C9.2926 3.40161 9.16891 3.50986 9.16891 3.69539C9.16891 3.86548 9.2926 3.97371 9.46269 4.00464C12.0603 4.53033 12.0294 4.62311 12.5551 7.09702C12.586 7.26709 12.6788 7.37532 12.8643 7.37532ZM25.6359 12.8334C25.8524 12.8334 25.976 12.6942 26.0224 12.4932C26.5481 9.55546 26.5635 9.36991 29.6714 8.82875C29.8878 8.79782 30.027 8.65866 30.027 8.4422C30.027 8.22574 29.8878 8.10203 29.6714 8.05565C26.5635 7.52994 26.5481 7.34441 26.0224 4.40664C25.976 4.20564 25.8524 4.05101 25.6359 4.05101C25.4193 4.05101 25.2957 4.20564 25.2493 4.40664C24.7236 7.34441 24.7082 7.52994 21.6003 8.05565C21.3993 8.10203 21.2447 8.22574 21.2447 8.4422C21.2447 8.65866 21.3993 8.79782 21.6003 8.82875C24.7082 9.36991 24.7236 9.55546 25.2493 12.4932C25.2957 12.6942 25.4193 12.8334 25.6359 12.8334ZM30.8002 30.4909C31.4495 31.1558 32.5628 31.1558 33.1812 30.4909C33.8152 29.8106 33.8152 28.7592 33.1812 28.1098L18.477 13.3591C17.8275 12.7097 16.7144 12.7097 16.0958 13.3591C15.4464 14.0394 15.462 15.1063 16.0958 15.7557L30.8002 30.4909ZM21.8012 19.8686L17.2709 15.3228C16.9926 15.0444 16.8999 14.7352 17.1781 14.4724C17.4101 14.2249 17.7348 14.2868 18.0286 14.5806L22.5744 19.1264L21.8012 19.8686Z" fill="#ABBDAB"/>
</svg>
