<svg width="39" height="31" viewBox="0 0 39 31" fill="none" xmlns="http://www.w3.org/2000/svg">
<g id="Group">
<path id="Vector" d="M5.18952 30.4264H33.7814C37.2522 30.4264 38.9709 28.7242 38.9709 25.3195V5.1234C38.9709 1.71882 37.2522 0 33.7814 0H5.18952C1.73535 0 0 1.71882 0 5.1234V25.3195C0 28.7242 1.73535 30.4264 5.18952 30.4264ZM5.22256 27.7656C3.56986 27.7656 2.66087 26.8896 2.66087 25.1709V5.27215C2.66087 3.55333 3.56986 2.66087 5.22256 2.66087H33.7484C35.3845 2.66087 36.3101 3.55333 36.3101 5.27215V25.1709C36.3101 26.8896 35.3845 27.7656 33.7484 27.7656H5.22256ZM9.73447 21.9645C10.4617 21.9645 10.8748 21.5018 10.8748 20.725V9.56921C10.8748 8.75938 10.4286 8.31314 9.6849 8.31314C9.1395 8.31314 8.79243 8.44536 8.18092 8.87506L5.53658 10.66C5.22256 10.8748 5.10687 11.1062 5.10687 11.4368C5.10687 11.883 5.47048 12.2631 5.88366 12.2631C6.09851 12.2631 6.26378 12.2301 6.61085 11.9822L8.49494 10.7426H8.64369V20.725C8.64369 21.4853 9.05687 21.9645 9.73447 21.9645ZM14.4447 21.7662H21.8654C22.4272 21.7662 22.824 21.353 22.824 20.7911C22.824 20.2293 22.4272 19.849 21.8654 19.849H16.5767V19.7829L19.9978 16.114C21.287 14.7257 22.1959 13.5853 22.1959 11.9987C22.1959 9.76753 20.4276 8.29661 17.7501 8.29661C15.7172 8.29661 13.8828 9.53615 13.42 11.2054C13.3704 11.4368 13.3374 11.5855 13.3374 11.7838C13.3374 12.3458 13.701 12.7259 14.2959 12.7259C14.8083 12.7259 15.0892 12.4119 15.3372 11.9987C15.6842 11.1062 16.461 10.1807 17.8492 10.1807C19.2045 10.1807 20.1135 10.974 20.1135 12.164C20.1135 13.1886 19.254 14.0811 18.4112 14.9736L13.7836 19.9482C13.5357 20.1961 13.4035 20.4606 13.4035 20.8076C13.4035 21.3861 13.8167 21.7662 14.4447 21.7662ZM28.7572 21.981C31.7321 21.981 33.7319 20.4276 33.7319 18.0807C33.7319 16.3784 32.4592 15.0397 30.724 14.8579V14.8248C32.1618 14.5935 33.269 13.2713 33.269 11.7508C33.269 9.73447 31.4346 8.28008 28.8729 8.28008C26.5425 8.28008 24.7741 9.40393 24.3776 11.1062C24.3444 11.3211 24.3279 11.4533 24.3279 11.6847C24.3279 12.2301 24.7245 12.6267 25.3195 12.6267C25.8319 12.6267 26.146 12.3953 26.3111 11.883C26.6252 10.7757 27.5673 10.1476 28.8398 10.1476C30.2446 10.1476 31.1371 10.8583 31.1371 11.9987C31.1371 13.1721 30.129 14.0315 28.7737 14.0315H27.8647C27.3523 14.0315 26.9723 14.3951 26.9723 14.9239C26.9723 15.4528 27.3523 15.833 27.8647 15.833H28.8729C30.476 15.833 31.5833 16.6923 31.5833 17.998C31.5833 19.2707 30.4595 20.13 28.7903 20.13C27.4185 20.13 26.4434 19.502 26.0633 18.3781C25.8484 17.8824 25.5509 17.6509 25.0551 17.6509C24.4436 17.6509 24.0635 18.0641 24.0635 18.6427C24.0635 18.841 24.08 18.9401 24.1131 19.1384C24.4767 20.8076 26.4269 21.981 28.7572 21.981Z" fill="#ABBDAB"/>
</g>
</svg>
