<svg width="39" height="42" viewBox="0 0 39 42" fill="none" xmlns="http://www.w3.org/2000/svg">
<g id="Group">
<path id="Vector" d="M3.02856 32.6527L17.8741 41.0656C18.9303 41.6693 19.9301 41.6693 21.0054 41.0656L35.8319 32.6527C37.5675 31.6717 38.4729 30.672 38.4729 27.9745V13.0347C38.4729 11.0729 37.756 9.84677 36.1716 8.94133L22.8163 1.35825C20.5337 0.0378109 18.3267 0.0378109 16.0443 1.35825L2.7079 8.94133C1.1045 9.84677 0.387695 11.0729 0.387695 13.0347V27.9745C0.387695 30.672 1.312 31.6717 3.02856 32.6527ZM4.72627 30.1627C3.63219 29.559 3.25493 28.9176 3.25493 27.8801V13.6383L17.9496 22.0325V37.6892L4.72627 30.1627ZM34.1532 30.1627L20.911 37.6892V22.0325L35.6056 13.6383V27.8801C35.6056 28.9176 35.2283 29.559 34.1532 30.1627ZM19.4396 19.3917L4.87717 11.1483L17.3081 4.05571C18.7607 3.22573 20.0999 3.20686 21.5713 4.05571L34.0022 11.1483L19.4396 19.3917Z" fill="#ABBDAB"/>
</g>
</svg>
