<svg width="60" height="27" viewBox="0 0 60 27" fill="none" xmlns="http://www.w3.org/2000/svg">
<g id="Group 502">
<path id="Vector" d="M3.64381 26.9737H22.3389C24.8077 26.9737 25.9827 26.251 25.9827 24.6608C25.9827 20.8735 21.0598 15.3949 12.9988 15.3949C4.92287 15.3949 0 20.8735 0 24.6608C0 26.251 1.17494 26.9737 3.64381 26.9737ZM2.94479 24.791C2.5581 24.791 2.39451 24.6898 2.39451 24.3862C2.39451 22.0155 6.17217 17.5778 12.9988 17.5778C19.8105 17.5778 23.5881 22.0155 23.5881 24.3862C23.5881 24.6898 23.4395 24.791 23.0527 24.791H2.94479ZM12.9988 13.4001C16.5235 13.4001 19.4238 10.3356 19.4238 6.6061C19.4238 2.91998 16.5682 0 12.9988 0C9.45904 0 6.55887 2.96335 6.57374 6.63502C6.57374 10.35 9.45904 13.4001 12.9988 13.4001ZM12.9988 11.2174C10.8125 11.2174 8.96825 9.19362 8.96825 6.63502C8.95337 4.11978 10.7827 2.18277 12.9988 2.18277C15.2148 2.18277 17.0293 4.09087 17.0293 6.6061C17.0293 9.16471 15.185 11.2174 12.9988 11.2174ZM29.6562 15.3949C27.1725 15.3949 24.9862 15.9298 23.142 16.7682C23.826 17.2742 24.4656 17.8091 25.0158 18.3872C26.3396 17.8958 27.9012 17.5778 29.6562 17.5778C36.4828 17.5778 40.2605 22.0155 40.2605 24.3862C40.2605 24.6898 40.0969 24.791 39.7102 24.791H27.8269C27.812 25.5715 27.6633 26.3088 27.1873 26.9737H38.9963C41.48 26.9737 42.655 26.251 42.655 24.6608C42.655 20.8735 37.7321 15.3949 29.6562 15.3949ZM29.671 13.4001C33.2108 13.4001 36.0961 10.3356 36.0961 6.6061C36.0961 2.91998 33.2405 0 29.671 0C26.1313 0 23.2312 2.96335 23.246 6.63502C23.2609 10.35 26.1313 13.4001 29.671 13.4001ZM29.671 11.2174C27.4997 11.2174 25.6405 9.19362 25.6405 6.63502C25.6257 4.11978 27.455 2.18277 29.671 2.18277C31.8871 2.18277 33.7016 4.09087 33.7016 6.6061C33.7016 9.16471 31.8574 11.2174 29.671 11.2174ZM46.3433 15.3949C43.8596 15.3949 41.6584 15.9298 39.8143 16.7827C40.5133 17.2742 41.138 17.8091 41.6883 18.4161C43.0118 17.8958 44.5884 17.5778 46.3433 17.5778C53.1699 17.5778 56.9476 22.0155 56.9476 24.3862C56.9476 24.6898 56.784 24.791 56.3973 24.791H44.4991C44.4843 25.5715 44.3356 26.3088 43.8448 26.9737H55.6834C58.1671 26.9737 59.3421 26.251 59.3421 24.6608C59.3421 20.8735 54.4192 15.3949 46.3433 15.3949ZM46.3433 13.4001C49.8831 13.4001 52.7683 10.3356 52.7683 6.6061C52.7683 2.91998 49.9128 0 46.3433 0C42.8186 0 39.9183 2.96335 39.9183 6.63502C39.9332 10.35 42.8186 13.4001 46.3433 13.4001ZM46.3433 11.2174C44.172 11.2174 42.3128 9.19362 42.3128 6.63502C42.3128 4.11978 44.1421 2.18277 46.3433 2.18277C48.5594 2.18277 50.3739 4.09087 50.3739 6.6061C50.3739 9.16471 48.5445 11.2174 46.3433 11.2174Z" fill="#ABBDAB"/>
</g>
</svg>
