<svg width="40" height="33" viewBox="0 0 40 33" fill="none" xmlns="http://www.w3.org/2000/svg">
<g id="Group">
<path id="Vector" d="M2.64837 15.6557C7.95111 17.5243 13.9272 18.4333 20.2568 18.4333C26.6033 18.4333 32.5794 17.5243 37.8821 15.6557L37.8653 12.8108C32.6973 14.8308 26.7548 15.824 20.2568 15.824C13.7757 15.824 7.83328 14.8308 2.6652 12.7939L2.64837 15.6557ZM17.6476 21.4803H22.8829C24.0613 21.4803 24.7515 20.8238 24.7515 19.6454V17.053H15.779V19.6454C15.779 20.8238 16.4692 21.4803 17.6476 21.4803ZM5.98152 32.6244H34.549C38.0337 32.6244 39.7507 30.9411 39.7507 27.4901V11.1105C39.7507 7.65951 38.0337 5.97611 34.549 5.97611H5.98152C2.5137 5.97611 0.779785 7.65951 0.779785 11.1105V27.4901C0.779785 30.9411 2.5137 32.6244 5.98152 32.6244ZM6.01519 29.931C4.36544 29.931 3.49008 29.0893 3.49008 27.3555V11.2452C3.49008 9.5281 4.36544 8.66957 6.01519 8.66957H34.5154C36.165 8.66957 37.0405 9.5281 37.0405 11.2452V27.3555C37.0405 29.0893 36.165 29.931 34.5154 29.931H6.01519ZM11.722 7.44068H14.3312V4.46104C14.3312 3.18164 15.0888 2.45778 16.4018 2.45778H24.1287C25.4418 2.45778 26.1824 3.18164 26.1824 4.46104V7.407H28.7917V4.64622C28.7917 1.4814 27.1251 0 24.0782 0H16.4354C13.5569 0 11.722 1.4814 11.722 4.64622V7.44068Z" fill="#ABBDAB"/>
</g>
</svg>
