<svg width="24" height="39" viewBox="0 0 24 39" fill="none" xmlns="http://www.w3.org/2000/svg">
<path id="Vector" d="M1.88724 39C2.75965 39 3.27596 38.4909 4.87833 36.9092L11.8397 29.909C11.9288 29.8183 12.089 29.8183 12.1602 29.909L19.1216 36.9092C20.724 38.4909 21.2404 39 22.1127 39C23.3055 39 24 38.2 24 36.7818V5.21818C24 1.76364 22.3086 0 18.9614 0H5.03857C1.69139 0 0 1.76364 0 5.21818V36.7818C0 38.2 0.694361 39 1.88724 39ZM3.34717 34.091C3.09791 34.3455 2.81305 34.2727 2.81305 33.9092V5.25455C2.81305 3.69092 3.61424 2.87273 5.18101 2.87273H18.8367C20.3858 2.87273 21.1869 3.69092 21.1869 5.25455V33.9092C21.1869 34.2727 20.9198 34.3455 20.6529 34.091L12.9436 26.4546C12.3739 25.8909 11.6261 25.8909 11.0564 26.4546L3.34717 34.091Z" fill="#ABBDAB"/>
</svg>
