<svg width="37" height="37" viewBox="0 0 37 37" fill="none" xmlns="http://www.w3.org/2000/svg">
<g id="touchid">
<g id="Group">
<path id="Vector" d="M1.93453 24.2573C2.42149 24.1037 2.65658 23.5919 2.52225 23.012C2.10245 21.289 1.85058 19.4638 1.93453 17.0756C1.95133 16.4445 1.61549 16.1033 1.11174 16.0692C0.456863 16.018 0.104237 16.4274 0.053862 16.9561C-0.0972633 18.8839 0.053862 21.1867 0.708739 23.5578C0.876655 24.1378 1.41399 24.4277 1.93453 24.2573ZM1.1957 14.0904C1.68266 14.278 2.30395 14.0562 2.53903 13.408C5.24249 5.73167 11.7073 1.91056 18.2728 1.91056C21.2618 1.91056 23.6126 2.52467 25.6108 3.68464C26.1818 4.02581 26.8199 4.02581 27.0718 3.46289C27.3404 2.86583 27.0381 2.49055 26.6184 2.21761C24.066 0.597048 21.4801 0 18.2728 0C10.683 0 3.79841 4.11111 0.708739 12.4698C0.389697 13.3227 0.708739 13.9198 1.1957 14.0904ZM36.1225 20.2826C36.6598 20.2826 37.046 19.8391 36.9956 19.2421C36.24 12.2992 33.9899 7.91516 30.1111 4.46933C29.624 4.02581 29.0364 4.16229 28.7508 4.50345C28.4319 4.86168 28.3982 5.42461 28.902 5.8852C32.21 9.02396 34.6112 13.0839 35.1821 19.2762C35.2493 19.8391 35.5852 20.2826 36.1225 20.2826ZM3.88236 29.2042C4.20141 29.6477 4.83949 29.7671 5.30967 29.3578C6.51867 28.3171 7.12317 26.6454 7.12317 24.9055C7.12317 22.5514 6.11567 21.3573 6.11567 18.4231C6.11567 11.7363 11.5898 6.17519 18.1721 6.17519C26.1146 6.17519 31.236 12.7768 31.2528 22.5173C31.2528 26.3213 30.6315 29.0166 30.0102 30.5689C29.792 31.0977 29.9934 31.6606 30.43 31.8995C30.9002 32.1042 31.5552 31.9336 31.7566 31.3707C32.4114 29.5624 33.1335 26.5942 33.1335 22.5002C33.1335 11.6339 27.2396 4.26464 18.1721 4.26464C10.5487 4.26464 4.235 10.6957 4.235 18.4231C4.235 21.2208 5.27608 23.1143 5.29287 24.8885C5.29287 26.0483 4.87308 27.1571 4.08387 27.8566C3.68087 28.1978 3.6137 28.8119 3.88236 29.2042ZM7.84521 32.3771C9.0878 31.7289 10.7838 29.5112 11.2539 27.7542C11.3883 27.2766 11.17 26.6965 10.6494 26.5261C10.1793 26.3555 9.6755 26.6454 9.4908 27.1913C9.03742 28.6924 8.24821 29.8183 7.00563 30.6712C6.40113 31.0977 6.31716 31.6266 6.50188 32.0189C6.70337 32.4454 7.24071 32.6841 7.84521 32.3771ZM11.4386 23.1313C11.0188 21.9715 10.3304 20.5043 10.3304 18.5256C10.3304 13.988 13.8063 10.4569 18.2728 10.4569C19.9856 10.4569 20.5229 10.6445 22.0174 11.378C22.538 11.6169 23.0081 11.4633 23.1928 11.088C23.4447 10.6104 23.3104 10.0304 22.7394 9.68925C21.6312 9.02396 19.9353 8.52927 18.2728 8.52927C12.7652 8.52927 8.43293 12.9304 8.43293 18.5256C8.43293 20.6749 9.00384 22.4149 9.59155 23.8648C9.82663 24.4277 10.3304 24.7008 10.9349 24.4449C11.4386 24.2401 11.6233 23.6942 11.4386 23.1313ZM24.6538 13.6639C26.2825 16.0692 27.0885 19.3955 27.0885 23.4213C27.0885 27.7202 25.9131 31.78 24.0828 34.1C23.7806 34.5094 23.7469 35.0894 24.1164 35.4647C24.5194 35.84 25.2079 35.8229 25.5437 35.3624C27.5922 32.5477 28.9355 28.0784 28.9355 23.3532C28.9355 18.1844 27.8441 15.1138 26.3161 12.6404C25.9634 12.0945 25.3758 11.9239 24.9055 12.1798C24.4186 12.4527 24.2675 13.0839 24.6538 13.6639ZM11.3715 34.6289C14.1253 32.3771 15.6366 28.7947 15.6198 24.8202C15.603 21.8179 14.5451 19.9584 14.5451 18.3208C14.5451 16.1715 16.0395 14.7386 18.2225 14.7386C21.5808 14.7386 22.6722 18.628 22.7731 23.2337C22.9241 28.556 21.0267 33.0594 18.5415 35.2771C18.1386 35.6183 18.0546 36.147 18.3233 36.5735C18.6422 37.0341 19.2972 37.1194 19.7338 36.71C22.3533 34.2877 24.5698 28.9653 24.5361 23.0973C24.5194 17.3656 22.9241 12.828 18.2225 12.828C15.0992 12.828 12.698 14.9432 12.698 18.1503C12.698 20.0779 13.7055 22.4491 13.7223 24.8202C13.7391 28.1978 12.4965 31.2341 10.196 33.1276C9.74268 33.5029 9.6755 34.0488 9.96097 34.4753C10.3136 34.9699 10.9181 35.0212 11.3715 34.6289ZM15.3007 35.9936C16.6273 35.0212 18.2728 32.7864 18.9109 30.6029C19.0285 30.2277 18.9446 29.5965 18.4072 29.4089C17.8362 29.2042 17.3493 29.4942 17.1981 29.9377C16.3419 32.2235 15.2839 33.5712 14.1589 34.4583C13.7391 34.7993 13.6216 35.3624 13.907 35.8059C14.1757 36.2835 14.8306 36.3518 15.3007 35.9936ZM19.8681 26.6284C20.3382 24.3254 20.1535 21.3743 19.3307 18.8156C19.1125 18.1844 18.6254 17.9115 18.1049 18.0821C17.618 18.2527 17.3158 18.7133 17.5005 19.3102C18.2728 21.7837 18.4072 24.2231 18.0211 26.3725C17.9202 26.8843 18.1218 27.379 18.7094 27.4643C19.2468 27.5666 19.7506 27.2424 19.8681 26.6284Z" fill="#ABBDAB"/>
</g>
</g>
</svg>
