<svg width="15" height="15" viewBox="0 0 15 15" fill="none" xmlns="http://www.w3.org/2000/svg">
<path d="M7.5 15C11.6421 15 15 11.6421 15 7.5C15 3.35786 11.6421 0 7.5 0C3.35786 0 0 3.35786 0 7.5C0 11.6421 3.35786 15 7.5 15Z" fill="#ABBDAB"/>
<path fill-rule="evenodd" clip-rule="evenodd" d="M3.39513 7.42072C5.58153 6.46814 7.03948 5.84014 7.76896 5.53672C9.85179 4.6704 10.2846 4.51991 10.5667 4.51495C10.6287 4.51385 10.7674 4.52923 10.8573 4.60214C10.9332 4.66371 10.9541 4.74688 10.964 4.80525C10.974 4.86363 10.9865 4.9966 10.9766 5.1005C10.8637 6.28643 10.3753 9.16436 10.1269 10.4926C10.0217 11.0547 9.81472 11.2431 9.61431 11.2615C9.17877 11.3016 8.84805 10.9737 8.42621 10.6972C7.76611 10.2645 7.3932 9.99513 6.75246 9.57289C6.01197 9.08492 6.492 8.81673 6.914 8.37842C7.02444 8.26371 8.94343 6.51824 8.98057 6.3599C8.98522 6.34009 8.98953 6.26628 8.94568 6.2273C8.90182 6.18832 8.8371 6.20165 8.79039 6.21225C8.72419 6.22728 7.66967 6.92427 5.62685 8.30324C5.32753 8.50877 5.05641 8.60892 4.8135 8.60367C4.54571 8.59788 4.0306 8.45226 3.64766 8.32778C3.17797 8.1751 2.80467 8.09438 2.83718 7.83509C2.85411 7.70003 3.04009 7.56191 3.39513 7.42072Z" fill="white"/>
</svg>
