<svg width="28" height="22" viewBox="0 0 28 22" fill="none" xmlns="http://www.w3.org/2000/svg">
<path d="M8.56337 21.9667C18.7306 21.9667 24.2908 13.5433 24.2908 6.23932C24.2908 6 24.2859 5.7619 24.2749 5.52473C25.3541 4.74456 26.2924 3.77074 27.0324 2.66269C26.042 3.10272 24.9763 3.39904 23.8581 3.53264C24.9992 2.84839 25.8756 1.76547 26.289 0.474797C25.2208 1.10818 24.038 1.56844 22.7792 1.81665C21.7701 0.742309 20.3336 0.0703125 18.7441 0.0703125C15.6912 0.0703125 13.2156 2.54594 13.2156 5.59735C13.2156 6.03126 13.2643 6.4529 13.3587 6.85769C8.765 6.62695 4.69135 4.4271 1.96536 1.08275C1.49009 1.89938 1.21645 2.84869 1.21645 3.86083C1.21645 5.77845 2.19243 7.47147 3.67646 8.46215C2.76974 8.43426 1.91787 8.18483 1.17294 7.77054C1.17172 7.79352 1.17172 7.81681 1.17172 7.84102C1.17172 10.5183 3.07739 12.7534 5.60634 13.2599C5.1421 13.3864 4.65366 13.4545 4.14928 13.4545C3.79321 13.4545 3.44694 13.4189 3.11018 13.3549C3.81374 15.5507 5.85455 17.1491 8.2741 17.1941C6.38191 18.6769 3.99851 19.5604 1.40889 19.5604C0.963039 19.5604 0.523008 19.5349 0.090332 19.4837C2.53655 21.0514 5.44118 21.9667 8.56337 21.9667Z" fill="#ABBDAB"/>
</svg>
