<svg width="29" height="21" viewBox="0 0 29 21" fill="none" xmlns="http://www.w3.org/2000/svg">
<path d="M14.8156 0.0947956C16.7358 0.10552 23.5935 0.180594 25.5136 0.706111C26.7398 1.03624 27.7067 2.00306 28.0368 3.22927C28.5623 5.14942 28.6201 8.85403 28.6259 9.8733L28.6256 10.31C28.6187 11.1689 28.559 15.0399 28.0368 17.0241C27.7067 18.2503 26.7398 19.2171 25.5136 19.5472C23.3649 20.1127 15.033 20.1358 14.3564 20.1367H14.2691C13.5943 20.1357 5.28316 20.1117 3.11179 19.5237C1.88559 19.1935 0.918774 18.2267 0.588642 17.0005C0.0664935 15.0372 0.00682019 11.1501 0 10.2872V9.94338C0.00682019 9.08448 0.0664935 5.21343 0.588642 3.22927C0.918774 2.00306 1.90917 1.01266 3.11179 0.68253C5.03195 0.177225 11.8897 0.105039 13.8098 0.0947266L14.8156 0.0947956ZM11.4594 5.82316V14.4066L18.911 10.1149L11.4594 5.82316Z" fill="#ABBDAB"/>
</svg>
