<svg width="29" height="29" viewBox="0 0 29 29" fill="none" xmlns="http://www.w3.org/2000/svg">
<g id="Group">
<path id="Vector" d="M8.09211 28.9078C8.73685 28.9078 9.18422 28.5657 9.98685 27.8552L14.5263 23.8156H22.9737C26.8947 23.8156 29 21.6446 29 17.7894V7.71041C29 3.85513 26.8947 1.68408 22.9737 1.68408H6.02632C2.10527 1.68408 0 3.84198 0 7.71041V17.7894C0 21.6578 2.10527 23.8156 6.02632 23.8156H6.6579V27.2367C6.6579 28.2499 7.17106 28.9078 8.09211 28.9078ZM8.63159 26.4999V22.6841C8.63159 21.9736 8.35528 21.6972 7.64474 21.6972H6.02632C3.36842 21.6972 2.11842 20.342 2.11842 17.7762V7.71041C2.11842 5.14461 3.36842 3.80251 6.02632 3.80251H22.9737C25.6184 3.80251 26.8816 5.14461 26.8816 7.71041V17.7762C26.8816 20.342 25.6184 21.6972 22.9737 21.6972H14.4474C13.7105 21.6972 13.3421 21.8026 12.8421 22.3157L8.63159 26.4999ZM8.14475 11.342C8.14475 12.842 9.07896 13.9999 10.5658 13.9999C11.1184 13.9999 11.671 13.9078 12.0131 13.4736H12.1185C11.6316 14.5657 10.6184 15.2631 9.76316 15.4868C9.27633 15.6184 9.13158 15.8289 9.13158 16.1446C9.13158 16.4736 9.40791 16.7499 9.77632 16.7499C11.1053 16.7499 13.7763 15.1709 13.7763 11.8289C13.7763 10.0394 12.6185 8.68409 10.9079 8.68409C9.32895 8.68409 8.14475 9.77619 8.14475 11.342ZM15.25 11.342C15.25 12.842 16.1843 13.9999 17.6711 13.9999C18.2237 13.9999 18.7764 13.9078 19.1184 13.4736H19.2237C18.7369 14.5657 17.7238 15.2631 16.8684 15.4868C16.3948 15.6184 16.2368 15.8289 16.2368 16.1446C16.2368 16.4736 16.5131 16.7499 16.8816 16.7499C18.2106 16.7499 20.8816 15.1709 20.8816 11.8289C20.8816 10.0394 19.7237 8.68409 18.0132 8.68409C16.4342 8.68409 15.25 9.77619 15.25 11.342Z" fill="#ABBDAB"/>
</g>
</svg>
