<svg width="26" height="26" viewBox="0 0 26 26" fill="none" xmlns="http://www.w3.org/2000/svg">
<path id="Vector" d="M24.3656 17.1215L20.7351 14.6026C19.6123 13.8294 18.3023 13.7421 17.2543 14.7771L16.4184 15.6126C16.1065 15.9244 15.6449 15.9617 15.2581 15.7123C14.8091 15.438 13.4491 14.2533 12.5259 13.3307C11.5528 12.3704 10.6171 11.298 10.2677 10.7369C10.0307 10.3379 10.0681 9.88895 10.38 9.57717L11.2034 8.7417C12.2514 7.69423 12.1641 6.37242 11.3906 5.2626L8.87043 1.63387C8.09692 0.524049 7.26103 0.012783 6.36275 0.000311749C5.57677 -0.0121595 4.75335 0.349474 3.91746 1.09766L3.60556 1.37201C2.1833 2.64393 1.59693 4.07796 1.59693 6.23526C1.59693 7.91869 2.10844 9.78913 3.34356 12.2208C3.92994 11.9714 4.57869 11.7843 5.23992 11.6846C4.01727 9.3403 3.4808 7.68176 3.50576 6.23526C3.53071 4.86356 4.01727 3.67892 4.9904 2.83098C5.07773 2.75616 5.1401 2.69381 5.22745 2.63146C5.60172 2.30724 6.00096 2.13266 6.36275 2.13266C6.72457 2.13266 7.04893 2.26983 7.28598 2.64393L9.70633 6.27266C9.96832 6.65922 9.99327 7.09567 9.60652 7.48224L8.50863 8.57959C7.68521 9.40255 7.77254 10.5249 8.59596 11.4851C9.4069 12.4328 10.5048 13.5052 11.6277 14.6275C12.6506 15.675 13.5614 16.5727 14.5096 17.3708C15.4827 18.2063 16.6056 18.2936 17.4165 17.4831L18.5144 16.3858C18.9011 15.9992 19.3253 16.0241 19.7245 16.2735L23.3551 18.6926C23.7294 18.9421 23.8666 19.2538 23.8666 19.6279C23.8666 19.9896 23.6919 20.3886 23.3675 20.7626C23.2927 20.85 23.2427 20.9123 23.1679 20.9996C22.3195 21.9723 21.1344 22.4461 19.7495 22.471C18.2523 22.4959 16.5681 22.0345 14.31 20.7876C14.2227 21.4485 14.023 22.0844 13.761 22.6705C16.2562 23.93 18.0902 24.3914 19.7371 24.3914C21.9203 24.3914 23.3551 23.8053 24.6151 22.3838C24.7149 22.284 24.8023 22.1717 24.9021 22.072C25.6507 21.2365 26 20.4135 26 19.6279C26 18.7301 25.476 17.8946 24.3656 17.1215ZM6.3378 26C9.78118 26 12.6881 23.1319 12.6881 19.6653C12.6881 16.1987 9.81861 13.3307 6.3378 13.3307C2.86948 13.3307 0 16.1987 0 19.6653C0 23.1568 2.86948 26 6.3378 26ZM5.58925 23.082C5.37715 23.082 5.12764 22.9948 4.96544 22.8202L2.84453 20.5007C2.70729 20.3387 2.64492 20.1143 2.64492 19.9397C2.64492 19.4907 2.98176 19.154 3.41843 19.154C3.68042 19.154 3.88003 19.2787 4.01727 19.4284L5.55181 21.0744L8.59596 16.8596C8.73319 16.6601 8.97024 16.5104 9.25718 16.5104C9.66889 16.5104 10.0432 16.8471 10.0432 17.2836C10.0432 17.4332 9.9808 17.5953 9.86851 17.7574L6.238 22.7953C6.11324 22.9698 5.86371 23.082 5.58925 23.082Z" fill="#ABBDAB"/>
</svg>
